# This file uses centimeters as units for non-parametric coordinates.

mtllib testFurnitureSet.mtl
g default
v -12.565132 3.218844 0.000000
v -5.029265 3.218844 0.000000
v -12.565132 15.450954 0.392909
v -5.029265 15.450954 0.392909
v -21.218945 -0.006603 4.085027
v -13.730888 -0.006603 4.085027
v -21.218945 7.481453 4.085027
v -13.730888 7.481453 4.085027
v -3.590486 6.925179 4.085027
v 3.897569 6.925179 4.085027
v -3.590486 14.413235 4.085027
v 3.897569 14.413235 4.085027
v 2.712850 3.218844 0.000000
v 10.248716 3.218844 0.000000
v 2.712850 15.450954 0.392909
v 10.248716 15.450954 0.392909
v -5.068206 3.218844 0.000000
v 2.467660 3.218844 0.000000
v -5.068206 15.450954 0.392909
v 2.467660 15.450954 0.392909
vt 0.001992 0.001700
vt 0.325270 0.001700
vt 0.325270 0.526440
vt 0.001992 0.526440
vt 0.676781 0.530432
vt 0.998008 0.530432
vt 0.998008 0.851658
vt 0.676781 0.851658
vt 0.349419 0.530432
vt 0.670646 0.530432
vt 0.670646 0.851658
vt 0.349419 0.851658
vt 0.331560 0.001700
vt 0.654838 0.001700
vt 0.654838 0.526440
vt 0.331560 0.526440
vt 0.662882 0.001700
vt 0.986160 0.001700
vt 0.986160 0.526440
vt 0.662882 0.526440
vn 0.000000 -0.032104 0.999485
vn 0.000000 -0.032104 0.999485
vn 0.000000 -0.032104 0.999485
vn 0.000000 -0.032104 0.999485
vn 0.000000 0.000000 1.000000
vn 0.000000 0.000000 1.000000
vn 0.000000 0.000000 1.000000
vn 0.000000 0.000000 1.000000
vn 0.000000 0.000000 1.000000
vn 0.000000 0.000000 1.000000
vn 0.000000 0.000000 1.000000
vn 0.000000 0.000000 1.000000
vn 0.000000 -0.032104 0.999485
vn 0.000000 -0.032104 0.999485
vn 0.000000 -0.032104 0.999485
vn 0.000000 -0.032104 0.999485
vn 0.000000 -0.032104 0.999485
vn 0.000000 -0.032104 0.999485
vn 0.000000 -0.032104 0.999485
vn 0.000000 -0.032104 0.999485
s off
g testFurnitureSet:pPlane15
usemtl testFurnitureSet:lambert8SG
f 1/1/1 2/2/2 4/3/3 3/4/4
f 5/5/5 6/6/6 8/7/7 7/8/8
f 9/9/9 10/10/10 12/11/11 11/12/12
f 13/13/13 14/14/14 16/15/15 15/16/16
f 17/17/17 18/18/18 20/19/19 19/20/20
