# This file uses centimeters as units for non-parametric coordinates.

v -14.772481 4.804739 -2.765582
v -11.003819 -1.665822 -2.765582
v -8.301920 8.573401 -2.765582
v -4.533258 2.102840 -2.765582
v -8.688507 5.260509 -2.765582
v -7.918677 -2.187871 -2.765582
v -1.240128 6.030339 -2.765582
v -0.470299 -1.418041 -2.765582
v 17.341499 -2.705852 -2.765582
v 17.428291 4.781700 -2.765582
v 5.481644 -2.568377 -2.765582
v 5.568437 4.919174 -2.765582
vt 0.035177 0.039237
vt 0.457452 0.039237
vt 0.457452 0.461511
vt 0.035177 0.461511
vt 0.052080 0.526615
vt 0.473224 0.526615
vt 0.473224 0.947759
vt 0.052080 0.947759
vt 0.959686 0.061612
vt 0.535551 0.061612
vt 0.535551 0.697451
vt 0.959686 0.697451
vn 0.000000 0.000000 1.000000
vn 0.000000 0.000000 1.000000
vn 0.000000 0.000000 1.000000
vn 0.000000 0.000000 1.000000
vn -0.000000 0.000000 1.000000
vn -0.000000 0.000000 1.000000
vn -0.000000 0.000000 1.000000
vn -0.000000 0.000000 1.000000
vn -0.000000 0.000000 1.000000
vn -0.000000 0.000000 1.000000
vn -0.000000 0.000000 1.000000
vn -0.000000 0.000000 1.000000
f 1/1/1 2/2/2 4/3/3 3/4/4
f 5/5/5 6/6/6 8/7/7 7/8/8
f 9/9/9 10/10/10 12/11/11 11/12/12
