# This file uses centimeters as units for non-parametric coordinates.

v -4.957850 7.225142 -2.765582
v -4.957736 -0.262916 -2.765582
v 2.530207 7.225256 -2.765582
v 2.530320 -0.262801 -2.765582
v -9.803009 7.205244 -2.765582
v -9.802895 -0.282813 -2.765582
v -2.314952 7.205359 -2.765582
v -2.314839 -0.282699 -2.765582
v 0.290419 7.155419 -2.765582
v 0.290533 -0.332639 -2.765582
v 7.778475 7.155533 -2.765582
v 7.778589 -0.332524 -2.765582
vt 0.557894 0.945336
vt 0.557900 0.557895
vt 0.945342 0.557900
vt 0.945336 0.945342
vt 0.055071 0.944957
vt 0.055077 0.557516
vt 0.442518 0.557522
vt 0.442512 0.944963
vt 0.557894 0.444834
vt 0.557900 0.057393
vt 0.945341 0.057399
vt 0.945336 0.444840
vn 0.000000 0.000000 1.000000
vn 0.000000 0.000000 1.000000
vn 0.000000 0.000000 1.000000
vn 0.000000 0.000000 1.000000
vn 0.000000 0.000000 1.000000
vn 0.000000 0.000000 1.000000
vn 0.000000 0.000000 1.000000
vn 0.000000 0.000000 1.000000
vn 0.000000 0.000000 1.000000
vn 0.000000 0.000000 1.000000
vn 0.000000 0.000000 1.000000
vn 0.000000 0.000000 1.000000
f 1/1/1 2/2/2 4/3/3 3/4/4
f 5/5/5 6/6/6 8/7/7 7/8/8
f 9/9/9 10/10/10 12/11/11 11/12/12
