# This file uses centimeters as units for non-parametric coordinates.

v -12.565132 3.218844 -6.850609
v -5.029265 3.218844 -6.850609
v -12.565132 15.450954 -6.457701
v -5.029265 15.450954 -6.457701
v -5.068206 3.218844 -6.850609
v 2.467660 3.218844 -6.850609
v -5.068206 15.450953 -6.457701
v 2.467660 15.450953 -6.457701
v 2.712850 3.218844 -6.850609
v 10.248716 3.218844 -6.850609
v 2.712850 15.450953 -6.457701
v 10.248716 15.450953 -6.457701
vt 0.000000 0.000000
vt 1.000000 0.000000
vt 0.000000 1.000000
vt 1.000000 1.000000
vt 0.000000 0.000000
vt 1.000000 0.000000
vt 1.000000 1.000000
vt 0.000000 1.000000
vt 0.000000 0.000000
vt 1.000000 0.000000
vt 1.000000 1.000000
vt 0.000000 1.000000
vn 0.000000 -0.032104 0.999485
vn 0.000000 -0.032104 0.999485
vn 0.000000 -0.032104 0.999485
vn 0.000000 -0.032104 0.999485
vn 0.000000 -0.032104 0.999485
vn 0.000000 -0.032104 0.999485
vn 0.000000 -0.032104 0.999485
vn 0.000000 -0.032104 0.999485
vn 0.000000 -0.032104 0.999485
vn 0.000000 -0.032104 0.999485
vn 0.000000 -0.032104 0.999485
vn 0.000000 -0.032104 0.999485
f 1/1/1 2/2/2 4/4/3 3/3/4
f 5/5/5 6/6/6 8/7/7 7/8/8
f 9/9/9 10/10/10 12/11/11 11/12/12
