# This file uses centimeters as units for non-parametric coordinates.

v 22.023581 0.000000 4.971244
v 21.023581 0.000000 4.971244
v 22.023581 10.010740 5.462995
v 21.023581 10.010740 5.462995
v 22.023581 10.010740 0.849268
v 21.023581 10.010740 0.849268
v 22.023581 0.000000 1.341019
v 21.023581 0.000000 1.341019
vt 0.621727 0.038422
vt 0.621727 0.713802
vt 0.706967 0.713802
vt 0.706967 0.038422
vt 0.806234 0.004008
vt 0.806234 0.556781
vt 0.891636 0.556781
vt 0.891636 0.004008
vt 0.713980 0.005209
vt 0.713980 0.680589
vt 0.799220 0.680589
vt 0.799220 0.005209
vt 0.059998 0.006574
vt 0.001780 0.754544
vt 0.614622 0.748720
vt 0.542201 0.001992
vn 0.000000 -0.062180 0.998065
vn 0.000000 -0.062180 0.998065
vn 0.000000 -0.062180 0.998065
vn 0.000000 -0.062180 0.998065
vn 0.000000 1.000000 0.000000
vn 0.000000 1.000000 0.000000
vn 0.000000 1.000000 0.000000
vn 0.000000 1.000000 0.000000
vn 0.000000 -0.062180 -0.998065
vn 0.000000 -0.062180 -0.998065
vn 0.000000 -0.062180 -0.998065
vn 0.000000 -0.062180 -0.998065
vn -1.000000 0.000000 0.000000
vn -1.000000 0.000000 0.000000
vn -1.000000 0.000000 0.000000
vn -1.000000 0.000000 0.000000
f 1/1/1 3/2/2 4/3/3 2/4/4
f 3/5/5 5/6/6 6/7/7 4/8/8
f 5/9/9 7/10/10 8/11/11 6/12/12
f 2/13/13 4/14/14 6/15/15 8/16/16
